<svg width="68" height="68" viewBox="0 0 68 68" fill="currentColor" xmlns="http://www.w3.org/2000/svg"><path d="M41.8 25.8H50.6V28H44V35.7H36.3V43.4H28.6V51.1H20.1V48.9H26.4V41.2H34.1V33.5H41.8V25.8ZM20.5 34.1L34.8 19.8V25H37V16H28V18.2H33.2L19 32.5L20.5 34.1ZM67.1 33.6C67.1 52.1 52 67.2 33.5 67.2C15.1 67.1 0 52.1 0 33.6C0 15.1 15.1 0 33.6 0C52.1 0 67.1 15.1 67.1 33.6ZM65.7 33.6C65.7 15.9 51.3 1.5 33.6 1.5C15.9 1.5 1.5 15.9 1.5 33.6C1.5 51.3 15.9 65.7 33.6 65.7C51.3 65.7 65.7 51.3 65.7 33.6Z"></path></svg>