<svg width="68" height="68" viewBox="0 0 68 68" fill="currentColor" xmlns="http://www.w3.org/2000/svg"><path fill = "rgb(4, 199, 92)" d="M66 33.7C66 15.9 51.5 1.5 33.7 1.5C15.9 1.5 1.5 15.9 1.5 33.7C1.5 51.5 15.9 66 33.7 66C51.5 66 66 51.5 66 33.7ZM0 33.7C0 15.1 15.1 0 33.7 0C52.3 0 67.4 15.1 67.4 33.7C67.4 52.3 52.3 67.5 33.7 67.5C15.1 67.5 0 52.3 0 33.7Z"></path><path d="M41.8 18.3C40.2 18.3 38.8 19.6 38.8 21.3C38.8 22.9 40.1 24.3 41.8 24.3C43.4 24.3 44.8 23 44.8 21.3C44.7 19.7 43.4 18.3 41.8 18.3Z"></path><path d="M31.4 20.5C30.4 20.5 29.3 20.9 28.5 21.7L25 25L26.8 26.9L30.3 23.5C30.6 23.2 31 23.1 31.4 23.1C31.7 23.1 31.9 23.2 32.1 23.3L34.5 24.6L26.8 31.8C26.7 31.8 26.7 31.9 26.6 31.9L28.1 33.4C29 32.9 30 32.7 31.1 32.7C34.7 32.7 37.7 35.6 37.7 39.3C37.7 40.4 37.4 41.4 37 42.3L38.5 43.8C39.3 42.5 39.8 41 39.8 39.3C39.8 37.7 39.4 36.2 38.6 34.9L42.4 34.7L41.5 43.6L44.1 43.9L45.1 33.5C45.1 33.1 45 32.7 44.7 32.5C44.5 32.2 44.1 32.1 43.8 32.1H43.7L37.5 32.5L40.8 28.2C41.7 27.1 41.3 25.5 40.1 24.9L36.9 23L33.4 21C32.7 20.7 32 20.5 31.4 20.5Z"></path><path d="M25.3 32.9C23.6 34.5 22.5 36.7 22.5 39.3C22.5 44 26.4 47.9 31.1 47.9C33.6 47.9 35.9 46.8 37.5 45.1L36 43.6C34.8 45 33 45.8 31.1 45.8C27.5 45.8 24.5 42.9 24.5 39.2C24.5 37.2 25.4 35.5 26.7 34.3L25.3 32.9Z"></path></svg>